<?xml version="1.0" standalone="no"?><!DOCTYPE svg PUBLIC "-//W3C//DTD SVG 1.1//EN" "http://www.w3.org/Graphics/SVG/1.1/DTD/svg11.dtd"><svg t="1639986917013" class="icon" viewBox="0 0 1024 1024" version="1.1" xmlns="http://www.w3.org/2000/svg" p-id="4912" xmlns:xlink="http://www.w3.org/1999/xlink" width="200" height="200"><defs></defs><path d="M839.68 636.416L732.16 450.56c-6.144-10.24-16.896-16.896-29.184-16.896h-215.04c-11.776 0-23.04 6.656-29.184 16.896l-107.52 185.856c-6.144 10.24-6.144 23.552 0 34.304l107.52 185.856c6.144 10.24 16.896 16.896 29.184 16.896h215.04c11.776 0 23.04-6.656 29.184-16.896l107.52-185.856c6.144-10.752 6.144-23.552 0-34.304z" fill="#DCEAEC" p-id="4913"></path><path d="M954.368 471.552L758.272 133.12c-10.752-18.944-31.232-30.72-53.76-30.72H311.808c-22.016 0-42.496 11.776-53.76 30.72L61.952 471.552c-11.264 18.944-11.264 43.008 0 61.952l196.096 338.432c10.752 18.944 31.232 30.72 53.76 30.72h392.704c22.016 0 42.496-11.776 53.76-30.72l196.096-338.432c10.752-18.944 10.752-42.496 0-61.952z m-97.792 62.464L709.632 788.48c-11.264 18.944-31.232 30.72-53.76 30.72H359.936c-22.016 0-43.008-11.776-53.76-30.72l-146.944-254.464c-11.264-18.944-11.264-43.008 0-62.464l146.944-254.464c11.264-18.944 31.232-30.72 53.76-30.72H655.36c22.016 0 43.008 11.776 53.76 30.72l146.944 254.464c11.264 19.456 11.264 43.008 0.512 62.464z" fill="#0D162F" p-id="4914"></path><path d="M651.776 539.648H363.52c-17.92 0-32.256-14.336-32.256-32.256v-22.016c0-17.92 14.336-32.256 32.256-32.256h288.256c17.92 0 32.256 14.336 32.256 32.256v22.016c0.512 17.92-14.336 32.256-32.256 32.256z" fill="#158878" p-id="4915"></path></svg>