<?xml version="1.0" standalone="no"?><!DOCTYPE svg PUBLIC "-//W3C//DTD SVG 1.1//EN" "http://www.w3.org/Graphics/SVG/1.1/DTD/svg11.dtd"><svg t="1639986342702" class="icon" viewBox="0 0 1024 1024" version="1.1" xmlns="http://www.w3.org/2000/svg" p-id="4768" xmlns:xlink="http://www.w3.org/1999/xlink" width="200" height="200"><defs></defs><path d="M943.616 411.648l-97.792-173.056c-7.168-12.8-20.992-20.992-36.864-20.992h-286.72c-14.848 0-28.672 8.192-36.864 20.992L389.12 410.112v1.024l-0.512 0.512c-8.192 15.36-6.144 34.816 5.12 47.616l240.64 274.944c15.36 17.92 43.008 19.456 60.928 4.096 1.536-1.024 2.56-2.56 4.096-4.096l239.616-273.92c11.264-13.824 13.312-32.768 4.608-48.64z" fill="#DCEAEC" p-id="4769"></path><path d="M968.192 393.728l-159.744-283.648c-12.288-21.504-35.328-35.328-59.904-35.328H275.456c-24.576 0-47.616 13.312-59.904 35.328L56.32 391.168v1.536l-1.024 0.512c-13.824 25.088-10.24 56.32 8.704 77.824l395.264 451.584c25.6 29.184 70.144 32.768 99.84 6.656 2.56-2.048 4.608-4.096 6.656-6.656l393.728-450.048c19.456-21.504 22.528-52.736 8.704-78.848z m-110.08 68.096l-317.44 363.52c-1.536 2.048-3.584 3.584-5.12 5.12-23.552 20.48-23.04 25.088-44.032 1.536L172.544 467.456c-25.6-27.136-30.208-47.104-19.456-67.584l119.808-211.968c9.728-17.408 28.16-27.648 48.64-27.648h380.928c19.968 0 38.912 10.752 48.64 28.16l118.784 210.432c10.752 20.48 8.704 39.424-11.776 62.976z" fill="#0D162F" p-id="4770"></path><path d="M458.752 337.92c0-14.336 18.944-26.112 42.496-26.112 23.04 0 42.496 11.776 42.496 26.112v220.672c0 14.336-18.944 26.112-42.496 26.112-23.04 0-42.496-11.776-42.496-26.112V337.92z" fill="#158878" p-id="4771"></path></svg>