<?xml version="1.0" standalone="no"?><!DOCTYPE svg PUBLIC "-//W3C//DTD SVG 1.1//EN" "http://www.w3.org/Graphics/SVG/1.1/DTD/svg11.dtd"><svg t="1639986925367" class="icon" viewBox="0 0 1024 1024" version="1.1" xmlns="http://www.w3.org/2000/svg" p-id="5056" xmlns:xlink="http://www.w3.org/1999/xlink" width="200" height="200"><defs></defs><path d="M188.416 649.728c0 140.8 114.176 254.976 254.976 254.976s254.976-114.176 254.976-254.976c0-140.8-114.176-254.976-254.976-254.976-140.8 0-254.976 114.176-254.976 254.976z" fill="#DCEAEC" p-id="5057"></path><path d="M891.904 780.288c16.384-23.552 30.72-49.152 43.52-75.776 103.936-229.888 3.072-503.808-225.792-611.328-238.592-112.64-522.24-4.608-626.176 238.592-97.28 228.864 4.608 496.128 229.888 601.6 103.424 48.64 215.04 55.808 316.928 28.672 17.408-4.608 34.816-10.24 51.2-16.384 25.088-9.728 35.328-41.472 19.456-64-11.264-16.896-32.768-23.552-51.712-16.384-15.872 6.144-33.28 11.776-49.664 15.36-82.432 19.968-172.544 12.288-254.976-28.16-177.152-86.528-257.536-299.008-182.784-481.792C244.736 168.448 480.768 77.824 677.376 174.08c179.712 87.552 260.096 304.128 181.76 487.936-10.752 24.576-23.552 48.64-38.912 69.632-11.776 16.384-9.728 39.936 4.096 54.272 19.456 19.968 51.712 17.408 67.584-5.632z" fill="#0D162F" p-id="5058"></path><path d="M506.88 517.12m-133.12 0a133.12 133.12 0 1 0 266.24 0 133.12 133.12 0 1 0-266.24 0Z" fill="#158878" p-id="5059"></path></svg>